<mxfile host="" modified="2020-06-15T19:14:42.501Z" agent="5.0 (Macintosh; Intel Mac OS X 10_14_6) AppleWebKit/537.36 (KHTML, like Gecko) Code/1.45.1 Chrome/78.0.3904.130 Electron/7.2.4 Safari/537.36" etag="uDa-pC4RPVwpf9uLR3sO" version="13.1.3">
    <diagram name="B" id="7wjFQVrjKo_N2x9DF-Ni">
        <mxGraphModel dx="973" dy="312" grid="1" gridSize="10" guides="1" tooltips="1" connect="1" arrows="1" fold="1" page="1" pageScale="1" pageWidth="827" pageHeight="1169" math="0" shadow="0">
            <root>
                <mxCell id="auqlSFN50E8ZhjRSyr_w-0"/>
                <mxCell id="auqlSFN50E8ZhjRSyr_w-1" parent="auqlSFN50E8ZhjRSyr_w-0"/>
                <mxCell id="auqlSFN50E8ZhjRSyr_w-2" value="4" style="whiteSpace=wrap;html=1;aspect=fixed;" parent="auqlSFN50E8ZhjRSyr_w-1" vertex="1">
                    <mxGeometry x="240" y="280" width="40" height="40" as="geometry"/>
                </mxCell>
                <mxCell id="auqlSFN50E8ZhjRSyr_w-3" value="5" style="whiteSpace=wrap;html=1;aspect=fixed;" parent="auqlSFN50E8ZhjRSyr_w-1" vertex="1">
                    <mxGeometry x="280" y="280" width="40" height="40" as="geometry"/>
                </mxCell>
                <mxCell id="auqlSFN50E8ZhjRSyr_w-4" value="2" style="whiteSpace=wrap;html=1;aspect=fixed;" parent="auqlSFN50E8ZhjRSyr_w-1" vertex="1">
                    <mxGeometry x="320" y="280" width="40" height="40" as="geometry"/>
                </mxCell>
                <mxCell id="auqlSFN50E8ZhjRSyr_w-5" value="1" style="whiteSpace=wrap;html=1;aspect=fixed;" parent="auqlSFN50E8ZhjRSyr_w-1" vertex="1">
                    <mxGeometry x="360" y="280" width="40" height="40" as="geometry"/>
                </mxCell>
                <mxCell id="auqlSFN50E8ZhjRSyr_w-6" value="6" style="whiteSpace=wrap;html=1;aspect=fixed;" parent="auqlSFN50E8ZhjRSyr_w-1" vertex="1">
                    <mxGeometry x="400" y="280" width="40" height="40" as="geometry"/>
                </mxCell>
                <mxCell id="auqlSFN50E8ZhjRSyr_w-7" value="4" style="whiteSpace=wrap;html=1;aspect=fixed;" parent="auqlSFN50E8ZhjRSyr_w-1" vertex="1">
                    <mxGeometry x="440" y="280" width="40" height="40" as="geometry"/>
                </mxCell>
                <mxCell id="auqlSFN50E8ZhjRSyr_w-8" value="2" style="whiteSpace=wrap;html=1;aspect=fixed;" parent="auqlSFN50E8ZhjRSyr_w-1" vertex="1">
                    <mxGeometry x="480" y="280" width="40" height="40" as="geometry"/>
                </mxCell>
                <mxCell id="auqlSFN50E8ZhjRSyr_w-9" value="3" style="whiteSpace=wrap;html=1;aspect=fixed;" parent="auqlSFN50E8ZhjRSyr_w-1" vertex="1">
                    <mxGeometry x="520" y="280" width="40" height="40" as="geometry"/>
                </mxCell>
                <mxCell id="auqlSFN50E8ZhjRSyr_w-10" value="2" style="whiteSpace=wrap;html=1;aspect=fixed;" parent="auqlSFN50E8ZhjRSyr_w-1" vertex="1">
                    <mxGeometry x="560" y="280" width="40" height="40" as="geometry"/>
                </mxCell>
                <mxCell id="auqlSFN50E8ZhjRSyr_w-14" value="0+4" style="whiteSpace=wrap;html=1;aspect=fixed;" parent="auqlSFN50E8ZhjRSyr_w-1" vertex="1">
                    <mxGeometry x="240" y="360" width="40" height="40" as="geometry"/>
                </mxCell>
                <mxCell id="auqlSFN50E8ZhjRSyr_w-15" value="0+4+5" style="whiteSpace=wrap;html=1;aspect=fixed;" parent="auqlSFN50E8ZhjRSyr_w-1" vertex="1">
                    <mxGeometry x="280" y="360" width="40" height="40" as="geometry"/>
                </mxCell>
                <mxCell id="auqlSFN50E8ZhjRSyr_w-16" value="" style="whiteSpace=wrap;html=1;aspect=fixed;" parent="auqlSFN50E8ZhjRSyr_w-1" vertex="1">
                    <mxGeometry x="320" y="360" width="40" height="40" as="geometry"/>
                </mxCell>
                <mxCell id="auqlSFN50E8ZhjRSyr_w-17" value="" style="whiteSpace=wrap;html=1;aspect=fixed;" parent="auqlSFN50E8ZhjRSyr_w-1" vertex="1">
                    <mxGeometry x="360" y="360" width="40" height="40" as="geometry"/>
                </mxCell>
                <mxCell id="auqlSFN50E8ZhjRSyr_w-18" value="" style="whiteSpace=wrap;html=1;aspect=fixed;" parent="auqlSFN50E8ZhjRSyr_w-1" vertex="1">
                    <mxGeometry x="400" y="360" width="40" height="40" as="geometry"/>
                </mxCell>
                <mxCell id="auqlSFN50E8ZhjRSyr_w-19" value="" style="whiteSpace=wrap;html=1;aspect=fixed;" parent="auqlSFN50E8ZhjRSyr_w-1" vertex="1">
                    <mxGeometry x="440" y="360" width="40" height="40" as="geometry"/>
                </mxCell>
                <mxCell id="auqlSFN50E8ZhjRSyr_w-20" value="" style="whiteSpace=wrap;html=1;aspect=fixed;" parent="auqlSFN50E8ZhjRSyr_w-1" vertex="1">
                    <mxGeometry x="480" y="360" width="40" height="40" as="geometry"/>
                </mxCell>
                <mxCell id="auqlSFN50E8ZhjRSyr_w-21" value="" style="whiteSpace=wrap;html=1;aspect=fixed;" parent="auqlSFN50E8ZhjRSyr_w-1" vertex="1">
                    <mxGeometry x="520" y="360" width="40" height="40" as="geometry"/>
                </mxCell>
                <mxCell id="auqlSFN50E8ZhjRSyr_w-23" value="0" style="whiteSpace=wrap;html=1;aspect=fixed;" parent="auqlSFN50E8ZhjRSyr_w-1" vertex="1">
                    <mxGeometry x="200" y="360" width="40" height="40" as="geometry"/>
                </mxCell>
                <mxCell id="auqlSFN50E8ZhjRSyr_w-24" value="w" style="text;html=1;align=center;verticalAlign=middle;resizable=0;points=[];autosize=1;" parent="auqlSFN50E8ZhjRSyr_w-1" vertex="1">
                    <mxGeometry x="130" y="290" width="20" height="20" as="geometry"/>
                </mxCell>
                <mxCell id="auqlSFN50E8ZhjRSyr_w-25" value="s(累積和)" style="text;html=1;align=center;verticalAlign=middle;resizable=0;points=[];autosize=1;" parent="auqlSFN50E8ZhjRSyr_w-1" vertex="1">
                    <mxGeometry x="110" y="370" width="60" height="20" as="geometry"/>
                </mxCell>
                <mxCell id="9oDiLlCmajLW-8KcAxTa-0" value="" style="endArrow=none;html=1;strokeColor=#FF3333;" edge="1" parent="auqlSFN50E8ZhjRSyr_w-1">
                    <mxGeometry width="50" height="50" relative="1" as="geometry">
                        <mxPoint x="360" y="350" as="sourcePoint"/>
                        <mxPoint x="360" y="240" as="targetPoint"/>
                    </mxGeometry>
                </mxCell>
                <mxCell id="9oDiLlCmajLW-8KcAxTa-1" value="" style="endArrow=classic;startArrow=classic;html=1;strokeColor=#FF3333;" edge="1" parent="auqlSFN50E8ZhjRSyr_w-1">
                    <mxGeometry width="50" height="50" relative="1" as="geometry">
                        <mxPoint x="320" y="260" as="sourcePoint"/>
                        <mxPoint x="400" y="260" as="targetPoint"/>
                    </mxGeometry>
                </mxCell>
                <mxCell id="9oDiLlCmajLW-8KcAxTa-3" value="" style="shape=curlyBracket;whiteSpace=wrap;html=1;rounded=1;rotation=90;" vertex="1" parent="auqlSFN50E8ZhjRSyr_w-1">
                    <mxGeometry x="410" y="30" width="20" height="360" as="geometry"/>
                </mxCell>
                <mxCell id="9oDiLlCmajLW-8KcAxTa-4" value="n" style="text;html=1;align=center;verticalAlign=middle;resizable=0;points=[];autosize=1;" vertex="1" parent="auqlSFN50E8ZhjRSyr_w-1">
                    <mxGeometry x="410" y="170" width="20" height="20" as="geometry"/>
                </mxCell>
                <mxCell id="9oDiLlCmajLW-8KcAxTa-5" value="w[n-1]" style="text;html=1;align=center;verticalAlign=middle;resizable=0;points=[];autosize=1;" vertex="1" parent="auqlSFN50E8ZhjRSyr_w-1">
                    <mxGeometry x="555" y="240" width="50" height="20" as="geometry"/>
                </mxCell>
                <mxCell id="9oDiLlCmajLW-8KcAxTa-6" value="w[0]" style="text;html=1;align=center;verticalAlign=middle;resizable=0;points=[];autosize=1;" vertex="1" parent="auqlSFN50E8ZhjRSyr_w-1">
                    <mxGeometry x="240" y="240" width="40" height="20" as="geometry"/>
                </mxCell>
                <mxCell id="9oDiLlCmajLW-8KcAxTa-7" value="" style="whiteSpace=wrap;html=1;aspect=fixed;" vertex="1" parent="auqlSFN50E8ZhjRSyr_w-1">
                    <mxGeometry x="560" y="360" width="40" height="40" as="geometry"/>
                </mxCell>
                <mxCell id="9oDiLlCmajLW-8KcAxTa-8" value="s[n]" style="text;html=1;align=center;verticalAlign=middle;resizable=0;points=[];autosize=1;" vertex="1" parent="auqlSFN50E8ZhjRSyr_w-1">
                    <mxGeometry x="565" y="340" width="30" height="20" as="geometry"/>
                </mxCell>
                <mxCell id="9oDiLlCmajLW-8KcAxTa-9" value="s[n-1]" style="text;html=1;align=center;verticalAlign=middle;resizable=0;points=[];autosize=1;" vertex="1" parent="auqlSFN50E8ZhjRSyr_w-1">
                    <mxGeometry x="515" y="340" width="50" height="20" as="geometry"/>
                </mxCell>
                <mxCell id="9oDiLlCmajLW-8KcAxTa-10" value="s[0]" style="text;html=1;align=center;verticalAlign=middle;resizable=0;points=[];autosize=1;" vertex="1" parent="auqlSFN50E8ZhjRSyr_w-1">
                    <mxGeometry x="205" y="340" width="30" height="20" as="geometry"/>
                </mxCell>
                <mxCell id="9oDiLlCmajLW-8KcAxTa-11" value="&lt;font color=&quot;#ff0000&quot;&gt;s[i]&lt;/font&gt;" style="text;html=1;align=center;verticalAlign=middle;resizable=0;points=[];autosize=1;" vertex="1" parent="auqlSFN50E8ZhjRSyr_w-1">
                    <mxGeometry x="274" y="451" width="30" height="20" as="geometry"/>
                </mxCell>
                <mxCell id="9oDiLlCmajLW-8KcAxTa-12" value="i = 3" style="text;html=1;align=center;verticalAlign=middle;resizable=0;points=[];autosize=1;" vertex="1" parent="auqlSFN50E8ZhjRSyr_w-1">
                    <mxGeometry x="340" y="220" width="40" height="20" as="geometry"/>
                </mxCell>
                <mxCell id="9oDiLlCmajLW-8KcAxTa-13" value="i = 0" style="text;html=1;align=center;verticalAlign=middle;resizable=0;points=[];autosize=1;" vertex="1" parent="auqlSFN50E8ZhjRSyr_w-1">
                    <mxGeometry x="220" y="220" width="40" height="20" as="geometry"/>
                </mxCell>
                <mxCell id="9oDiLlCmajLW-8KcAxTa-14" value="i = n-1" style="text;html=1;align=center;verticalAlign=middle;resizable=0;points=[];autosize=1;" vertex="1" parent="auqlSFN50E8ZhjRSyr_w-1">
                    <mxGeometry x="535" y="220" width="50" height="20" as="geometry"/>
                </mxCell>
                <mxCell id="9oDiLlCmajLW-8KcAxTa-15" value="&lt;font color=&quot;#ff0000&quot;&gt;s[n] - s[i]&lt;/font&gt;" style="text;html=1;align=center;verticalAlign=middle;resizable=0;points=[];autosize=1;" vertex="1" parent="auqlSFN50E8ZhjRSyr_w-1">
                    <mxGeometry x="425" y="451" width="60" height="20" as="geometry"/>
                </mxCell>
            </root>
        </mxGraphModel>
    </diagram>
</mxfile>